<svg xmlns="http://www.w3.org/2000/svg" width="32" height="32" fill="none" viewBox="0 0 32 32"><path fill="#000" d="M16 32C24.8366 32 32 24.8366 32 16C32 7.16344 24.8366 0 16 0C7.16344 0 0 7.16344 0 16C0 24.8366 7.16344 32 16 32Z"/><path fill="#D1FF52" d="M22.496 16.6304H11.52V20.2893H22.496V16.6304Z"/><path fill="#D1FF52" d="M26.1559 11.1424H22.4971V16.631H26.1559V11.1424Z"/><path fill="#D1FF52" d="M11.5204 20.2899H7.86084V21.2045V22.1197V25.7779H11.5197V22.1197H11.5204V20.2899Z"/><path fill="#D1FF52" d="M22.497 7.48352H11.5204H10.9943H7.86084V14.8013V15.9693V16.631H11.5204V15.9693V14.8013V11.1424H22.497V7.48352Z"/><path fill="#D1FF52" d="M22.496 16.6304H11.52V20.2893H22.496V16.6304Z"/></svg>