<svg xmlns="http://www.w3.org/2000/svg" width="139" height="132" fill="none" viewBox="0 0 139 132"><path fill="url(#paint0_linear_221_257)" fill-opacity=".2" d="M66 130C101.346 130 130 101.346 130 66C130 30.6538 101.346 2 66 2C30.6538 2 2 30.6538 2 66C2 101.346 30.6538 130 66 130Z"/><path fill="url(#paint1_linear_221_257)" fill-opacity=".2" d="M66 130C101.346 130 130 101.346 130 66C130 30.6538 101.346 2 66 2C30.6538 2 2 30.6538 2 66C2 101.346 30.6538 130 66 130Z"/><path stroke="url(#paint2_linear_221_257)" stroke-width="4" d="M66 130C101.346 130 130 101.346 130 66C130 30.6538 101.346 2 66 2C30.6538 2 2 30.6538 2 66C2 101.346 30.6538 130 66 130Z"/><path stroke="url(#paint3_linear_221_257)" stroke-opacity=".2" stroke-width="4" d="M66 130C101.346 130 130 101.346 130 66C130 30.6538 101.346 2 66 2C30.6538 2 2 30.6538 2 66C2 101.346 30.6538 130 66 130Z"/><path fill="#FFD8E5" d="M66 130C101.346 130 130 101.346 130 66C130 30.6538 101.346 2 66 2C30.6538 2 2 30.6538 2 66C2 101.346 30.6538 130 66 130Z"/><path stroke="url(#paint4_linear_221_257)" stroke-width="4" d="M66 130C101.346 130 130 101.346 130 66C130 30.6538 101.346 2 66 2C30.6538 2 2 30.6538 2 66C2 101.346 30.6538 130 66 130Z"/><path stroke="url(#paint5_linear_221_257)" stroke-opacity=".2" stroke-width="4" d="M66 130C101.346 130 130 101.346 130 66C130 30.6538 101.346 2 66 2C30.6538 2 2 30.6538 2 66C2 101.346 30.6538 130 66 130Z"/><path fill="url(#paint6_linear_221_257)" d="M65.8485 41.2312C74.4928 41.2312 81.5007 37.2245 81.5007 32.2821C81.5007 27.3398 74.4928 23.3331 65.8485 23.3331C57.2039 23.3331 50.196 27.3398 50.196 32.2821C50.196 37.2245 57.2039 41.2312 65.8485 41.2312Z"/><path fill="url(#paint7_linear_221_257)" fill-opacity=".2" d="M65.8485 41.2312C74.4928 41.2312 81.5007 37.2245 81.5007 32.2821C81.5007 27.3398 74.4928 23.3331 65.8485 23.3331C57.2039 23.3331 50.196 27.3398 50.196 32.2821C50.196 37.2245 57.2039 41.2312 65.8485 41.2312Z"/><path fill="url(#paint8_linear_221_257)" d="M65.8485 108.66C74.4928 108.66 81.5007 104.653 81.5007 99.7114C81.5007 94.7693 74.4928 90.762 65.8485 90.762C57.2039 90.762 50.196 94.7693 50.196 99.7114C50.196 104.653 57.2039 108.66 65.8485 108.66Z"/><path fill="url(#paint9_linear_221_257)" fill-opacity=".2" d="M65.8485 108.66C74.4928 108.66 81.5007 104.653 81.5007 99.7114C81.5007 94.7693 74.4928 90.762 65.8485 90.762C57.2039 90.762 50.196 94.7693 50.196 99.7114C50.196 104.653 57.2039 108.66 65.8485 108.66Z"/><path fill="url(#paint10_linear_221_257)" d="M44.0356 53.6187C48.3579 46.2594 48.3299 38.2889 43.973 35.816C39.6161 33.3431 32.5801 37.3043 28.2579 44.6636C23.9356 52.0228 23.9636 59.9934 28.3205 62.4663C32.6774 64.9391 39.7134 60.978 44.0356 53.6187Z"/><path fill="url(#paint11_linear_221_257)" fill-opacity=".2" d="M44.0356 53.6187C48.3579 46.2594 48.3299 38.2889 43.973 35.816C39.6161 33.3431 32.5801 37.3043 28.2579 44.6636C23.9356 52.0228 23.9636 59.9934 28.3205 62.4663C32.6774 64.9391 39.7134 60.978 44.0356 53.6187Z"/><path fill="url(#paint12_linear_221_257)" d="M103.433 87.3296C107.754 79.9697 107.729 72.0012 103.375 69.5294C99.0209 67.0583 91.988 71.0211 87.6654 78.3802C83.3428 85.7394 83.3686 93.7086 87.7225 96.1797C92.0763 98.6507 99.1101 94.6888 103.433 87.3296Z"/><path fill="url(#paint13_linear_221_257)" fill-opacity=".2" d="M103.433 87.3296C107.754 79.9697 107.729 72.0012 103.375 69.5294C99.0209 67.0583 91.988 71.0211 87.6654 78.3802C83.3428 85.7394 83.3686 93.7086 87.7225 96.1797C92.0763 98.6507 99.1101 94.6888 103.433 87.3296Z"/><path fill="url(#paint14_linear_221_257)" d="M43.9752 96.1781C48.3321 93.7047 48.3602 85.7347 44.0379 78.3755C39.7156 71.0164 32.6796 67.0544 28.3227 69.5278C23.9658 72.0004 23.9378 79.9713 28.2601 87.3304C32.5824 94.6895 39.6183 98.6507 43.9752 96.1781Z"/><path fill="url(#paint15_linear_221_257)" fill-opacity=".2" d="M43.9752 96.1781C48.3321 93.7047 48.3602 85.7347 44.0379 78.3755C39.7156 71.0164 32.6796 67.0544 28.3227 69.5278C23.9658 72.0004 23.9378 79.9713 28.2601 87.3304C32.5824 94.6895 39.6183 98.6507 43.9752 96.1781Z"/><path fill="url(#paint16_linear_221_257)" d="M103.379 62.4683C107.733 59.9971 107.758 52.0279 103.436 44.6686C99.114 37.3093 92.0802 33.3467 87.7264 35.818C83.3726 38.2892 83.3467 46.2584 87.6693 53.6176C91.9911 60.9769 99.0248 64.9395 103.379 62.4683Z"/><path fill="url(#paint17_linear_221_257)" fill-opacity=".2" d="M103.379 62.4683C107.733 59.9971 107.758 52.0279 103.436 44.6686C99.114 37.3093 92.0802 33.3467 87.7264 35.818C83.3726 38.2892 83.3467 46.2584 87.6693 53.6176C91.9911 60.9769 99.0248 64.9395 103.379 62.4683Z"/><path fill="#F1F0FF" stroke="#645AFF" stroke-width="4" d="M117.2 128.435C128.118 128.435 136.969 119.584 136.969 108.666C136.969 97.7483 128.118 88.8975 117.2 88.8975C106.282 88.8975 97.4309 97.7483 97.4309 108.666C97.4309 119.584 106.282 128.435 117.2 128.435Z"/><path fill="#645AFF" d="M118.206 118.48C116.38 118.48 114.74 118.07 113.288 117.251C111.836 116.432 110.703 115.297 109.888 113.847C109.074 112.372 108.666 110.711 108.666 108.863C108.666 107.013 109.074 105.364 109.888 103.914C110.703 102.463 111.824 101.328 113.255 100.509C114.708 99.6895 116.358 99.2796 118.206 99.2796C119.945 99.2796 121.464 99.6543 122.762 100.403C124.082 101.152 125.073 102.229 125.733 103.633L122.564 105.598C122.058 104.733 121.42 104.089 120.649 103.668C119.901 103.223 119.076 103.001 118.174 103.001C116.633 103.001 115.357 103.539 114.345 104.615C113.332 105.668 112.826 107.084 112.826 108.863C112.826 110.641 113.321 112.068 114.312 113.145C115.324 114.197 116.611 114.725 118.174 114.725C119.076 114.725 119.901 114.513 120.649 114.093C121.42 113.647 122.058 112.993 122.564 112.127L125.733 114.093C125.051 115.497 124.05 116.585 122.729 117.357C121.431 118.105 119.923 118.48 118.206 118.48Z"/><defs><linearGradient id="paint0_linear_221_257" x1="181.867" x2="3.311" y1="181.413" y2="-37.257" gradientUnits="userSpaceOnUse"><stop stop-color="#645AFF"/><stop offset=".521" stop-color="#E40C5B"/><stop offset=".986" stop-color="#FF4C3B"/></linearGradient><linearGradient id="paint1_linear_221_257" x1="70.427" x2="234.492" y1="-50.587" y2="-14.541" gradientUnits="userSpaceOnUse"><stop stop-color="#fff"/><stop offset="1" stop-color="#fff" stop-opacity="0"/></linearGradient><linearGradient id="paint2_linear_221_257" x1="181.867" x2="3.311" y1="181.413" y2="-37.257" gradientUnits="userSpaceOnUse"><stop stop-color="#645AFF"/><stop offset=".521" stop-color="#E40C5B"/><stop offset=".986" stop-color="#FF4C3B"/></linearGradient><linearGradient id="paint3_linear_221_257" x1="70.427" x2="234.492" y1="-50.587" y2="-14.541" gradientUnits="userSpaceOnUse"><stop stop-color="#fff"/><stop offset="1" stop-color="#fff" stop-opacity="0"/></linearGradient><linearGradient id="paint4_linear_221_257" x1="181.867" x2="3.311" y1="181.413" y2="-37.257" gradientUnits="userSpaceOnUse"><stop stop-color="#645AFF"/><stop offset=".521" stop-color="#E40C5B"/><stop offset=".986" stop-color="#FF4C3B"/></linearGradient><linearGradient id="paint5_linear_221_257" x1="70.427" x2="234.492" y1="-50.587" y2="-14.541" gradientUnits="userSpaceOnUse"><stop stop-color="#fff"/><stop offset="1" stop-color="#fff" stop-opacity="0"/></linearGradient><linearGradient id="paint6_linear_221_257" x1="94.186" x2="74.652" y1="48.42" y2="6.577" gradientUnits="userSpaceOnUse"><stop stop-color="#645AFF"/><stop offset=".521" stop-color="#E40C5B"/><stop offset=".986" stop-color="#FF4C3B"/></linearGradient><linearGradient id="paint7_linear_221_257" x1="66.931" x2="103.581" y1="15.98" y2="30.064" gradientUnits="userSpaceOnUse"><stop stop-color="#fff"/><stop offset="1" stop-color="#fff" stop-opacity="0"/></linearGradient><linearGradient id="paint8_linear_221_257" x1="94.186" x2="74.652" y1="115.849" y2="74.006" gradientUnits="userSpaceOnUse"><stop stop-color="#645AFF"/><stop offset=".521" stop-color="#E40C5B"/><stop offset=".986" stop-color="#FF4C3B"/></linearGradient><linearGradient id="paint9_linear_221_257" x1="66.931" x2="103.581" y1="83.409" y2="97.493" gradientUnits="userSpaceOnUse"><stop stop-color="#fff"/><stop offset="1" stop-color="#fff" stop-opacity="0"/></linearGradient><linearGradient id="paint10_linear_221_257" x1="64.542" x2="17.847" y1="33.092" y2="29.284" gradientUnits="userSpaceOnUse"><stop stop-color="#645AFF"/><stop offset=".521" stop-color="#E40C5B"/><stop offset=".986" stop-color="#FF4C3B"/></linearGradient><linearGradient id="paint11_linear_221_257" x1="22.317" x2="52.341" y1="40.063" y2="15.049" gradientUnits="userSpaceOnUse"><stop stop-color="#fff"/><stop offset="1" stop-color="#fff" stop-opacity="0"/></linearGradient><linearGradient id="paint12_linear_221_257" x1="123.935" x2="77.266" y1="66.799" y2="62.982" gradientUnits="userSpaceOnUse"><stop stop-color="#645AFF"/><stop offset=".521" stop-color="#E40C5B"/><stop offset=".986" stop-color="#FF4C3B"/></linearGradient><linearGradient id="paint13_linear_221_257" x1="81.729" x2="111.756" y1="73.782" y2="48.777" gradientUnits="userSpaceOnUse"><stop stop-color="#fff"/><stop offset="1" stop-color="#fff" stop-opacity="0"/></linearGradient><linearGradient id="paint14_linear_221_257" x1="64.544" x2="13.062" y1="98.777" y2="93.753" gradientUnits="userSpaceOnUse"><stop stop-color="#645AFF"/><stop offset=".521" stop-color="#E40C5B"/><stop offset=".986" stop-color="#FF4C3B"/></linearGradient><linearGradient id="paint15_linear_221_257" x1="22.438" x2="44.721" y1="58.269" y2="48.781" gradientUnits="userSpaceOnUse"><stop stop-color="#fff"/><stop offset="1" stop-color="#fff" stop-opacity="0"/></linearGradient><linearGradient id="paint16_linear_221_257" x1="123.939" x2="72.477" y1="65.072" y2="60.068" gradientUnits="userSpaceOnUse"><stop stop-color="#645AFF"/><stop offset=".521" stop-color="#E40C5B"/><stop offset=".986" stop-color="#FF4C3B"/></linearGradient><linearGradient id="paint17_linear_221_257" x1="81.841" x2="104.108" y1="24.56" y2="15.076" gradientUnits="userSpaceOnUse"><stop stop-color="#fff"/><stop offset="1" stop-color="#fff" stop-opacity="0"/></linearGradient></defs></svg>