<svg xmlns="http://www.w3.org/2000/svg" xmlns:xlink="http://www.w3.org/1999/xlink" id="图层_1" x="0" y="0" version="1.1" viewBox="0 0 179.5 176.5" style="enable-background:new 0 0 179.5 176.5" xml:space="preserve"><style type="text/css">.st0{fill:url(#SVGID_1_);fill-opacity:.2}.st4{fill:#ffd8e5}.st20{fill:#f1f0ff;stroke:#645aff;stroke-width:4}.st21{fill:#645aff}</style><linearGradient id="SVGID_1_" x1="218.304" x2="-9.963" y1="-70.593" y2="208.957" gradientTransform="matrix(1 0 0 -1 0 180.2629)" gradientUnits="userSpaceOnUse"><stop offset="0" style="stop-color:#645aff"/><stop offset=".521" style="stop-color:#e40c5b"/><stop offset=".986" style="stop-color:#ff4c3b"/></linearGradient><circle cx="86.8" cy="89.8" r="81.8" class="st0"/><linearGradient id="SVGID_00000168829173156760511290000015451969529890145668_" x1="60.927" x2="270.67" y1="96.173" y2="50.092" gradientTransform="matrix(1 0 0 -1 0 180.2629)" gradientUnits="userSpaceOnUse"><stop offset="0" style="stop-color:#fff"/><stop offset="1" style="stop-color:#fff;stop-opacity:0"/></linearGradient><circle style="fill:url(#SVGID_00000168829173156760511290000015451969529890145668_);fill-opacity:.2" cx="86.8" cy="89.8" r="81.8"/><linearGradient id="SVGID_00000136409269203282073030000009591494270298730943_" x1="218.304" x2="-9.963" y1="-70.593" y2="208.957" gradientTransform="matrix(1 0 0 -1 0 180.2629)" gradientUnits="userSpaceOnUse"><stop offset="0" style="stop-color:#645aff"/><stop offset=".521" style="stop-color:#e40c5b"/><stop offset=".986" style="stop-color:#ff4c3b"/></linearGradient><circle style="fill:none;stroke:url(#SVGID_00000136409269203282073030000009591494270298730943_);stroke-width:4" cx="86.8" cy="89.8" r="81.8"/><linearGradient id="SVGID_00000005259903071189457390000006661664317544821436_" x1="60.927" x2="270.67" y1="96.173" y2="50.092" gradientTransform="matrix(1 0 0 -1 0 180.2629)" gradientUnits="userSpaceOnUse"><stop offset="0" style="stop-color:#fff"/><stop offset="1" style="stop-color:#fff;stop-opacity:0"/></linearGradient><circle style="fill:none;stroke:url(#SVGID_00000005259903071189457390000006661664317544821436_);stroke-width:4;stroke-opacity:.2" cx="86.8" cy="89.8" r="81.8"/><circle cx="86.8" cy="89.8" r="81.8" class="st4"/><linearGradient id="SVGID_00000013908635150308350890000014193758572776259006_" x1="218.304" x2="-9.963" y1="-70.593" y2="208.957" gradientTransform="matrix(1 0 0 -1 0 180.2629)" gradientUnits="userSpaceOnUse"><stop offset="0" style="stop-color:#645aff"/><stop offset=".521" style="stop-color:#e40c5b"/><stop offset=".986" style="stop-color:#ff4c3b"/></linearGradient><circle style="fill:none;stroke:url(#SVGID_00000013908635150308350890000014193758572776259006_);stroke-width:4" cx="86.8" cy="89.8" r="81.8"/><linearGradient id="SVGID_00000174595079420355516230000012173867100073204660_" x1="60.927" x2="270.67" y1="96.173" y2="50.092" gradientTransform="matrix(1 0 0 -1 0 180.2629)" gradientUnits="userSpaceOnUse"><stop offset="0" style="stop-color:#fff"/><stop offset="1" style="stop-color:#fff;stop-opacity:0"/></linearGradient><circle style="fill:none;stroke:url(#SVGID_00000174595079420355516230000012173867100073204660_);stroke-width:4;stroke-opacity:.2" cx="86.8" cy="89.8" r="81.8"/><g><defs><rect id="SVGID_00000149346608001079480210000012741986187136190629_" width="104.3" height="109.1" x="34.4" y="35.2"/></defs><clipPath id="SVGID_00000042702458350915539340000010353301267871335822_"><use xlink:href="#SVGID_00000149346608001079480210000012741986187136190629_" style="overflow:visible"/></clipPath><g style="clip-path:url(#SVGID_00000042702458350915539340000010353301267871335822_)"><linearGradient id="SVGID_00000047041017809669200400000002167040187435944359_" x1="100.963" x2="75.99" y1="102.776" y2="156.269" gradientTransform="matrix(1 0 0 -1 0 180.2629)" gradientUnits="userSpaceOnUse"><stop offset="0" style="stop-color:#645aff"/><stop offset=".521" style="stop-color:#e40c5b"/><stop offset=".986" style="stop-color:#ff4c3b"/></linearGradient><path style="fill:url(#SVGID_00000047041017809669200400000002167040187435944359_)" d="M86.6,58.1c11.1,0,20-5.1,20-11.4 s-9-11.4-20-11.4c-11.1,0-20,5.1-20,11.4S75.5,58.1,86.6,58.1z"/><linearGradient id="SVGID_00000012441818338808619420000007583112593177876895_" x1="80.8" x2="127.654" y1="135.82" y2="117.814" gradientTransform="matrix(1 0 0 -1 0 180.2629)" gradientUnits="userSpaceOnUse"><stop offset="0" style="stop-color:#fff"/><stop offset="1" style="stop-color:#fff;stop-opacity:0"/></linearGradient><path style="fill:url(#SVGID_00000012441818338808619420000007583112593177876895_);fill-opacity:.2" d="M86.6,58.1 c11.1,0,20-5.1,20-11.4s-9-11.4-20-11.4c-11.1,0-20,5.1-20,11.4S75.5,58.1,86.6,58.1z"/><linearGradient id="SVGID_00000152951318862502342270000011130160309723398328_" x1="100.963" x2="75.99" y1="16.574" y2="70.067" gradientTransform="matrix(1 0 0 -1 0 180.2629)" gradientUnits="userSpaceOnUse"><stop offset="0" style="stop-color:#645aff"/><stop offset=".521" style="stop-color:#e40c5b"/><stop offset=".986" style="stop-color:#ff4c3b"/></linearGradient><path style="fill:url(#SVGID_00000152951318862502342270000011130160309723398328_)" d="M86.6,144.3c11.1,0,20-5.1,20-11.4 c0-6.3-9-11.4-20-11.4c-11.1,0-20,5.1-20,11.4C66.6,139.2,75.5,144.3,86.6,144.3z"/><linearGradient id="SVGID_00000099662914302750812010000017492846428830264460_" x1="80.8" x2="127.654" y1="49.618" y2="31.613" gradientTransform="matrix(1 0 0 -1 0 180.2629)" gradientUnits="userSpaceOnUse"><stop offset="0" style="stop-color:#fff"/><stop offset="1" style="stop-color:#fff;stop-opacity:0"/></linearGradient><path style="fill:url(#SVGID_00000099662914302750812010000017492846428830264460_);fill-opacity:.2" d="M86.6,144.3 c11.1,0,20-5.1,20-11.4c0-6.3-9-11.4-20-11.4c-11.1,0-20,5.1-20,11.4C66.6,139.2,75.5,144.3,86.6,144.3z"/><linearGradient id="SVGID_00000072272621239498456040000001660082321344308878_" x1="83.001" x2="23.306" y1="109.244" y2="114.111" gradientTransform="matrix(1 0 0 -1 0 180.2629)" gradientUnits="userSpaceOnUse"><stop offset="0" style="stop-color:#645aff"/><stop offset=".521" style="stop-color:#e40c5b"/><stop offset=".986" style="stop-color:#ff4c3b"/></linearGradient><path style="fill:url(#SVGID_00000072272621239498456040000001660082321344308878_)" d="M58.7,73.9c5.5-9.4,5.5-19.6-0.1-22.8 C53,48,44,53.1,38.5,62.5C33,71.9,33,82.1,38.6,85.2C44.2,88.4,53.2,83.3,58.7,73.9z"/><linearGradient id="SVGID_00000088832137099352233970000009414184198316765864_" x1="43.873" x2="82.256" y1="108.109" y2="140.088" gradientTransform="matrix(1 0 0 -1 0 180.2629)" gradientUnits="userSpaceOnUse"><stop offset="0" style="stop-color:#fff"/><stop offset="1" style="stop-color:#fff;stop-opacity:0"/></linearGradient><path style="fill:url(#SVGID_00000088832137099352233970000009414184198316765864_);fill-opacity:.2" d="M58.7,73.9 c5.5-9.4,5.5-19.6-0.1-22.8C53,48,44,53.1,38.5,62.5C33,71.9,33,82.1,38.6,85.2C44.2,88.4,53.2,83.3,58.7,73.9z"/><linearGradient id="SVGID_00000015352249074152497900000009455815639795581864_" x1="158.922" x2="99.261" y1="66.137" y2="71.017" gradientTransform="matrix(1 0 0 -1 0 180.2629)" gradientUnits="userSpaceOnUse"><stop offset="0" style="stop-color:#645aff"/><stop offset=".521" style="stop-color:#e40c5b"/><stop offset=".986" style="stop-color:#ff4c3b"/></linearGradient><path style="fill:url(#SVGID_00000015352249074152497900000009455815639795581864_)" d="M134.6,117c5.5-9.4,5.5-19.6-0.1-22.8 c-5.6-3.2-14.6,1.9-20.1,11.3s-5.5,19.6,0.1,22.8C120.1,131.5,129.1,126.4,134.6,117z"/><linearGradient id="SVGID_00000029011059377232676070000015516611061776324506_" x1="119.813" x2="158.2" y1="65.011" y2="96.978" gradientTransform="matrix(1 0 0 -1 0 180.2629)" gradientUnits="userSpaceOnUse"><stop offset="0" style="stop-color:#fff"/><stop offset="1" style="stop-color:#fff;stop-opacity:0"/></linearGradient><path style="fill:url(#SVGID_00000029011059377232676070000015516611061776324506_);fill-opacity:.2" d="M134.6,117 c5.5-9.4,5.5-19.6-0.1-22.8c-5.6-3.2-14.6,1.9-20.1,11.3s-5.5,19.6,0.1,22.8C120.1,131.5,129.1,126.4,134.6,117z"/><linearGradient id="SVGID_00000085936394147079256330000002084992048214712454_" x1="86.531" x2="20.715" y1="65.251" y2="71.673" gradientTransform="matrix(1 0 0 -1 0 180.2629)" gradientUnits="userSpaceOnUse"><stop offset="0" style="stop-color:#645aff"/><stop offset=".521" style="stop-color:#e40c5b"/><stop offset=".986" style="stop-color:#ff4c3b"/></linearGradient><path style="fill:url(#SVGID_00000085936394147079256330000002084992048214712454_)" d="M58.6,128.3c5.6-3.2,5.6-13.4,0.1-22.8 S44.2,91.1,38.6,94.3C33,97.4,33,107.6,38.5,117S53,131.5,58.6,128.3z"/><linearGradient id="SVGID_00000154411351275304632230000006914628798356744091_" x1="45.095" x2="73.582" y1="67.457" y2="79.587" gradientTransform="matrix(1 0 0 -1 0 180.2629)" gradientUnits="userSpaceOnUse"><stop offset="0" style="stop-color:#fff"/><stop offset="1" style="stop-color:#fff;stop-opacity:0"/></linearGradient><path style="fill:url(#SVGID_00000154411351275304632230000006914628798356744091_);fill-opacity:.2" d="M58.6,128.3 c5.6-3.2,5.6-13.4,0.1-22.8S44.2,91.1,38.6,94.3C33,97.4,33,107.6,38.5,117S53,131.5,58.6,128.3z"/><linearGradient id="SVGID_00000120542599994155271760000015433519188566913692_" x1="162.457" x2="96.668" y1="108.36" y2="114.757" gradientTransform="matrix(1 0 0 -1 0 180.2629)" gradientUnits="userSpaceOnUse"><stop offset="0" style="stop-color:#645aff"/><stop offset=".521" style="stop-color:#e40c5b"/><stop offset=".986" style="stop-color:#ff4c3b"/></linearGradient><path style="fill:url(#SVGID_00000120542599994155271760000015433519188566913692_)" d="M134.6,85.3c5.6-3.2,5.6-13.3,0.1-22.8 c-5.5-9.4-14.5-14.5-20.1-11.3c-5.6,3.2-5.6,13.3-0.1,22.8C120,83.3,129,88.4,134.6,85.3z"/><linearGradient id="SVGID_00000094597150678496217660000014650746776243098804_" x1="121.039" x2="149.506" y1="110.552" y2="122.677" gradientTransform="matrix(1 0 0 -1 0 180.2629)" gradientUnits="userSpaceOnUse"><stop offset="0" style="stop-color:#fff"/><stop offset="1" style="stop-color:#fff;stop-opacity:0"/></linearGradient><path style="fill:url(#SVGID_00000094597150678496217660000014650746776243098804_);fill-opacity:.2" d="M134.6,85.3 c5.6-3.2,5.6-13.3,0.1-22.8c-5.5-9.4-14.5-14.5-20.1-11.3c-5.6,3.2-5.6,13.3-0.1,22.8C120,83.3,129,88.4,134.6,85.3z"/></g></g><circle cx="152.2" cy="144.3" r="25.3" class="st20"/><path d="M153.5,156.9c-2.3,0-4.4-0.5-6.3-1.6c-1.9-1-3.3-2.5-4.3-4.4c-1-1.9-1.6-4-1.6-6.4c0-2.4,0.5-4.5,1.6-6.3	c1-1.9,2.5-3.3,4.3-4.4c1.9-1,4-1.6,6.3-1.6c2.2,0,4.2,0.5,5.8,1.4c1.7,1,3,2.3,3.8,4.1l-4.1,2.5c-0.6-1.1-1.5-1.9-2.4-2.5	c-1-0.6-2-0.9-3.2-0.9c-2,0-3.6,0.7-4.9,2.1c-1.3,1.3-1.9,3.2-1.9,5.4c0,2.3,0.6,4.1,1.9,5.5c1.3,1.3,2.9,2,4.9,2	c1.2,0,2.2-0.3,3.2-0.8c1-0.6,1.8-1.4,2.4-2.5l4.1,2.5c-0.9,1.8-2.2,3.2-3.8,4.2C157.6,156.4,155.7,156.9,153.5,156.9z" class="st21"/></svg>